<svg width="372" height="46" viewBox="0 0 372 46" fill="none" xmlns="http://www.w3.org/2000/svg">
<path fill-rule="evenodd" clip-rule="evenodd" d="M361.371 21.3597V26.0017H363.626V30.9848C363.626 33.4192 361.551 33.4655 361.551 33.4655C359.029 33.4655 359.124 31.1509 359.124 31.1509V13.9147C359.124 12.1376 361.362 12.0437 361.362 12.0437C363.512 12.0437 363.528 14.1618 363.528 14.1618V16.7826H371.801C372.07 11.6681 371.056 10.4284 371.056 10.4284C369.003 5.80226 361.239 6.0551 361.239 6.0551C349.304 6.0551 350.628 15.2439 350.628 15.2439V31.9094C350.88 40.4181 362.344 39.6741 362.828 39.6427L362.841 39.6419C368.074 39.0611 369.652 37.3953 369.652 37.3953C371.106 36.3117 371.482 34.8106 371.482 34.8106C371.896 33.9365 372 31.1509 372 31.1509V21.3597H361.371ZM267.812 21.7931C267.812 21.7931 265.567 20.3989 264.178 19.8614C264.178 19.8614 259.882 17.8633 259.03 16.9126C259.03 16.9126 257.357 15.3291 258.336 13.4899C258.336 13.4899 258.746 12.2864 260.516 12.2864C260.516 12.2864 262.818 12.4136 262.818 14.3135V16.995H271.074L271.06 13.0464C271.06 13.0464 271.693 6.58244 261.335 6.29782C261.335 6.29782 253.189 5.76036 250.853 10.1641C250.853 10.1641 249.936 11.1451 249.936 14.5677V17.0398C249.936 17.0398 249.842 19.8918 251.295 21.7281C251.295 21.7281 252.115 22.9345 254.137 24.2637C254.137 24.2637 258.241 26.4814 260.704 27.7514C260.704 27.7514 263.191 29.1759 262.862 31.4413C262.862 31.4413 262.662 33.7674 260.259 33.6735C260.259 33.6735 258.064 33.5724 258.064 31.2925V28.6139H249.268V32.5061C249.268 32.5061 249.02 39.9468 260.326 39.9468C260.326 39.9468 271.124 40.1664 271.63 32.3082V29.1412C271.63 29.1412 272.008 24.3272 267.812 21.7931ZM225.55 7.22393L222.786 24.6075H222.139L219.499 7.37996H205.709L205.019 38.8574H213.183L213.281 15.1399H213.923L218.251 38.8545H226.84L231.114 15.1485H231.683L231.88 38.8574H240.087L239.205 7.22393H225.55ZM171.519 38.8242L176.95 7.35396H190.821L196.252 38.8242H187.464L184.248 14.4233H183.525L180.308 38.8242H171.519ZM333.583 26.4814H333.943L333.354 7.2297H341.634V38.8632H331.889L323.189 19.6158H322.825L323.314 38.8632H315.139V7.23115H325.183L333.583 26.4814ZM295.175 30.9819C295.175 30.9819 295.295 33.5782 292.898 33.5782C292.898 33.5782 290.372 33.7125 290.372 31.0469L290.346 7.25138H281.379V30.8576C281.379 30.8576 280.458 39.7922 293.021 39.7922C293.021 39.7922 303.941 39.9208 303.941 31.2665V7.25138H295.175V30.9819ZM156.221 19.8614C157.61 20.3989 159.852 21.7916 159.852 21.7916C164.051 24.3272 163.674 29.1412 163.674 29.1412V32.3082C163.166 40.1664 152.369 39.9468 152.369 39.9468C141.066 39.9468 141.312 32.5061 141.312 32.5061V28.611H150.11V31.2925C150.11 33.5724 152.307 33.6735 152.307 33.6735C154.706 33.7674 154.908 31.4413 154.908 31.4413C155.236 29.173 152.747 27.7485 152.747 27.7485C150.284 26.4814 146.182 24.2637 146.182 24.2637C144.161 22.9345 143.341 21.7281 143.341 21.7281C141.886 19.8903 141.982 17.0398 141.982 17.0398V14.5677C141.982 11.1451 142.899 10.1641 142.899 10.1641C142.904 10.1522 142.912 10.1412 142.92 10.1299C142.928 10.1191 142.935 10.1081 142.942 10.0961C145.183 6.64312 151.456 6.30504 151.456 6.30504C152.602 6.24725 153.381 6.29782 153.381 6.29782C163.736 6.581 163.105 13.0449 163.105 13.0449L163.121 16.995H154.863V14.3135C154.863 12.4136 152.559 12.2879 152.559 12.2879C150.791 12.2879 150.382 13.4914 150.382 13.4914C149.401 15.3263 151.076 16.9126 151.076 16.9126C151.928 17.8647 156.221 19.8614 156.221 19.8614Z" fill="white"/>
<path d="M106.89 0.605263V45.3947" stroke="white" stroke-linecap="square"/>
<path fill-rule="evenodd" clip-rule="evenodd" d="M72.1736 7.08928C72.1736 7.08928 70.0423 5.38405 63.3028 2.78734C57.3837 0.505942 52.9181 0 52.9181 0L52.9382 13.3799C52.9382 15.2632 52.446 16.982 51.0725 18.9424C46.0439 17.0229 41.2891 15.8419 36.0929 15.8419H36.0899H36.0871H36.0837H36.0806C30.8845 15.8419 26.13 17.0229 21.1014 18.9424C19.7276 16.982 19.2353 15.2632 19.2353 13.3799L19.2555 0C19.2555 0 14.7899 0.505942 8.87078 2.78734C2.1313 5.38405 0 7.08928 0 7.08928C0.279615 13.162 5.35166 18.56 13.3467 22.2819C5.35166 26.0041 0.279615 31.4021 0 37.4745C0 37.4745 2.13164 39.1797 8.87078 41.7768C14.7899 44.0578 19.2555 44.5637 19.2555 44.5637L19.2353 31.1839C19.2353 29.3006 19.7279 27.5817 21.1014 25.6214C26.13 27.5409 30.8845 28.7219 36.0806 28.7219H36.0837H36.0868H36.0899H36.0929C41.2891 28.7219 46.0439 27.5409 51.0725 25.6214C52.4463 27.5814 52.9382 29.3006 52.9382 31.1839L52.9181 44.5637C52.9181 44.5637 57.3837 44.0578 63.3031 41.7768C70.0426 39.1797 72.1736 37.4745 72.1736 37.4745C71.8943 31.4021 66.8219 26.0041 58.8269 22.2819C66.8219 18.56 71.8943 13.162 72.1736 7.08928M47.9855 22.2819C47.7154 22.4911 47.3962 22.7319 47.0096 23.0189C44.5289 24.8607 40.925 26.1241 36.2416 26.1241L36.0946 26.1259H36.0868H36.0789L35.9323 26.1241C31.2485 26.1241 27.6447 24.8607 25.164 23.0189C24.7777 22.7319 24.4581 22.4911 24.1884 22.2819C24.4581 22.0726 24.7777 21.8318 25.164 21.5448C27.6447 19.7034 31.2485 18.4396 35.9323 18.4396L36.0789 18.4379H36.0871H36.0946L36.2416 18.4396C40.925 18.4396 44.5292 19.7034 47.0096 21.5448C47.3962 21.8318 47.7154 22.0726 47.9855 22.2819" fill="white"/>
</svg>
