<svg width="360" height="54" viewBox="0 0 360 54" fill="none" xmlns="http://www.w3.org/2000/svg">
<path d="M29.825 12.0439C28.0247 13.0599 26.5244 14.4345 25.3242 16.108C24.7841 14.4943 23.764 13.0599 22.3237 12.1634C20.6434 11.2071 18.7831 10.729 16.8628 10.7888C15.1825 10.7888 13.5022 11.2071 12.002 12.0439C10.3817 13.0001 9.0015 14.315 7.98133 15.9287V11.745H0V42.5248H8.28138V23.9972C8.28138 23.1604 8.46141 22.264 8.76146 21.487C9.06151 20.7698 9.48158 20.0526 10.0817 19.5147C10.6818 18.917 11.3419 18.4389 12.122 18.0803C12.8421 17.7814 13.6223 17.6619 14.4024 17.6619C14.9425 17.6619 15.4226 17.7217 15.9026 17.901C16.3827 18.0803 16.8028 18.3791 17.1028 18.7377C17.4629 19.2159 17.763 19.7537 17.883 20.3514C18.123 21.2479 18.183 22.1444 18.183 23.0409V42.465H26.4044V23.5788C26.4044 22.8019 26.5844 22.0249 26.8845 21.3674C27.1845 20.6502 27.6646 20.0526 28.2047 19.4549C28.8048 18.8572 29.4649 18.3791 30.245 18.0205C30.9652 17.7217 31.7453 17.6022 32.5254 17.6022C33.0055 17.6022 33.5456 17.6619 34.0257 17.8412C34.5057 18.0205 34.9258 18.3193 35.2259 18.6779C35.5859 19.1561 35.886 19.694 36.006 20.2917C36.246 21.1882 36.3661 22.0846 36.306 23.0409V42.465H44.5874V21.9053C44.5874 17.9607 43.8073 15.1517 42.187 13.4185C41.2269 12.522 40.1467 11.8048 38.8865 11.3864C37.6263 10.9681 36.306 10.7888 35.0458 10.8485C33.2455 10.8485 31.4452 11.2669 29.885 12.1634M70.2717 11.745L63.6106 31.9461L56.4094 11.745H46.8678L59.6499 41.1502L58.6898 43.7201C58.3897 44.7959 57.7896 45.7522 57.0095 46.5292C56.2294 47.0671 55.3292 47.3659 54.3691 47.3061C53.1689 47.3061 52.0287 47.1268 50.8885 46.828L49.5082 52.9242C50.5284 53.2828 51.6086 53.5219 52.6888 53.6414C53.709 53.7609 54.7291 53.8207 55.7493 53.8207C57.1895 53.8805 58.5698 53.6414 59.89 53.1633C60.9702 52.7449 61.9903 52.0875 62.7705 51.2507C63.6706 50.2347 64.3907 49.0991 64.9908 47.9038C65.6509 46.5889 66.3111 45.035 66.9712 43.3018L79.3332 11.6255H70.2717V11.745ZM92.1754 0.568683C90.9152 0.987049 89.775 1.64447 88.7548 2.54097C87.7346 3.49724 86.9545 4.63281 86.4744 5.8879C85.8743 7.44184 85.6343 9.11529 85.6343 10.7888V11.8048H80.8335V18.2596H85.6343V42.5846H93.9156V18.2596H101.057V11.8048H93.9156V10.6095C93.8556 10.0118 93.9156 9.41413 94.1557 8.81646C94.3957 8.2188 94.7558 7.74067 95.2359 7.3223C96.076 6.72463 97.0962 6.4258 98.1163 6.4258C99.3165 6.4258 100.517 6.60509 101.717 6.90393L102.857 0.927268C101.777 0.568668 100.637 0.329613 99.4966 0.21008C98.4764 0.0905464 97.4562 0.0307689 96.3761 0.0307689C94.9358 -0.0887643 93.5556 0.150317 92.1754 0.568683ZM105.978 7.86019H114.439V0.449142H105.978V7.86019ZM106.098 42.5248H114.379V11.745H106.098V42.5248ZM122.6 3.55701V11.745H117.8V18.1998H122.6V32.6036C122.6 36.4286 123.441 39.1181 125.061 40.7318C126.681 42.3455 129.202 43.1225 132.562 43.1225C133.582 43.1225 134.602 43.0627 135.623 42.9432C136.763 42.7639 137.843 42.5248 138.983 42.226L137.783 36.1298C137.243 36.3091 136.703 36.4286 136.103 36.4884C135.503 36.4884 134.962 36.6079 134.422 36.6079C133.462 36.6677 132.562 36.3091 131.842 35.7712C131.482 35.3528 131.182 34.8149 131.002 34.2173C130.822 33.6794 130.762 33.0817 130.822 32.484V18.3193H137.903V11.8048H130.822V3.55701H122.6ZM154.466 12.0439C152.725 12.9404 151.225 14.315 150.145 15.9885V11.745H142.164V42.5248H150.445V23.9972C150.445 23.1007 150.625 22.264 150.985 21.487C151.345 20.7698 151.825 20.1123 152.365 19.5147C153.025 18.917 153.746 18.4987 154.526 18.1401C155.426 17.7815 156.326 17.6619 157.286 17.6619C158.486 17.6021 159.687 18.0205 160.587 18.8572C161.427 19.6342 161.907 21.1284 161.907 23.28V42.5248H170.188V22.2042C170.188 18.2596 169.348 15.3908 167.608 13.5978C165.868 11.745 163.287 10.8485 159.867 10.8485C158.066 10.8485 156.326 11.3267 154.706 12.1634M183.931 21.0686C184.231 20.2916 184.651 19.5744 185.251 18.917C185.851 18.3193 186.571 17.7814 187.351 17.4826C188.251 17.124 189.272 16.9447 190.232 16.9447C191.132 16.885 192.032 17.0045 192.872 17.3033C193.712 17.6022 194.492 18.0803 195.093 18.7377C196.233 20.1123 196.773 21.9053 196.653 23.6983H183.391C183.451 22.8018 183.631 21.9651 183.931 21.0686ZM184.171 11.9243C182.31 12.6415 180.69 13.7173 179.31 15.1517C177.93 16.6459 176.849 18.3791 176.129 20.2917C175.349 22.503 174.989 24.8339 174.989 27.2246C174.989 32.4243 176.309 36.4286 178.89 39.2376C181.47 42.0467 185.311 43.4811 190.412 43.4811C194.672 43.4811 197.913 42.5846 200.133 40.7916C202.474 38.7595 203.974 35.9505 204.274 32.9024H196.233C195.633 35.6517 193.712 37.0263 190.472 37.0263C189.512 37.0861 188.491 36.9665 187.591 36.6079C186.691 36.2493 185.851 35.6517 185.191 34.9345C183.931 33.261 183.271 31.2289 183.331 29.1371H204.634V25.7902C204.634 21.1881 203.434 17.5424 201.094 14.7931C198.693 12.1036 195.153 10.729 190.472 10.729C188.311 10.7888 186.151 11.1474 184.171 11.9243ZM216.516 11.506C215.016 11.9243 213.576 12.5818 212.315 13.4185C211.175 14.1955 210.275 15.2115 209.615 16.3471C208.955 17.6022 208.595 18.9768 208.655 20.3514C208.535 21.6065 208.775 22.8018 209.195 23.9374C209.675 25.073 210.395 26.089 211.355 26.866C213.816 28.5394 216.696 29.6152 219.697 29.9141L223.957 30.6313C225.098 30.691 226.178 31.1692 227.018 31.9461C227.558 32.484 227.798 33.261 227.798 33.9782C227.858 34.4563 227.738 34.9345 227.498 35.3528C227.258 35.7712 226.898 36.1298 226.538 36.3689C225.218 36.9665 223.777 37.2056 222.337 37.086C220.897 37.1458 219.457 36.847 218.076 36.2493C217.416 35.8907 216.936 35.3528 216.516 34.7552C216.156 34.1575 215.916 33.4403 215.856 32.7231H207.995C208.055 34.5161 208.535 36.3091 209.435 37.863C210.215 39.1779 211.355 40.3135 212.675 41.1502C214.056 41.9869 215.556 42.5846 217.176 42.8834C218.916 43.242 220.657 43.4213 222.457 43.4213C227.078 43.4213 230.438 42.5248 232.659 40.8514C233.739 40.0146 234.579 38.9388 235.119 37.7435C235.719 36.5482 235.959 35.1735 235.899 33.8587C235.899 32.5438 235.779 31.2289 235.419 29.9738C235.119 28.898 234.459 27.882 233.619 27.105C232.659 26.2085 231.519 25.4913 230.318 25.0132C228.578 24.3558 226.778 23.9374 224.977 23.6386L221.077 22.9812C219.817 22.8616 218.616 22.4432 217.536 21.8456C217.236 21.6065 216.996 21.2479 216.816 20.8893C216.636 20.5307 216.576 20.1124 216.636 19.694C216.636 19.3354 216.756 18.9768 216.876 18.6779C217.116 18.3193 217.416 17.9607 217.776 17.7217C218.316 17.4228 218.856 17.1838 219.457 17.0642C220.357 16.8849 221.257 16.7654 222.217 16.7654C223.717 16.6459 225.158 17.0045 226.478 17.7814C227.438 18.5584 228.098 19.694 228.338 20.8893L235.719 19.9331C235.479 18.678 235.119 17.4229 234.579 16.2873C234.039 15.1517 233.259 14.1357 232.239 13.3587C231.038 12.4025 229.658 11.745 228.158 11.3267C226.178 10.7888 224.077 10.5497 222.037 10.6095C220.237 10.6095 218.376 10.7888 216.636 11.2669M247.181 11.506C245.681 11.9243 244.241 12.5818 242.98 13.4185C241.84 14.1955 240.94 15.2115 240.22 16.4068C239.56 17.6619 239.2 19.0365 239.26 20.4112C239.2 21.6065 239.38 22.8616 239.86 23.9972C240.34 25.1327 241.06 26.1488 242.02 26.9257C244.481 28.5992 247.361 29.675 250.362 29.9738L254.622 30.691C255.763 30.7508 256.843 31.2289 257.683 32.0059C258.223 32.5438 258.463 33.3208 258.463 34.038C258.523 34.5161 258.403 34.9942 258.163 35.4126C257.923 35.831 257.623 36.1896 257.203 36.4286C255.883 37.0263 254.442 37.2654 253.002 37.1458C251.562 37.2056 250.122 36.9068 248.741 36.3091C248.081 35.9505 247.541 35.4724 247.181 34.8149C246.821 34.2173 246.581 33.5001 246.581 32.7829H238.66C238.72 34.5759 239.2 36.3689 240.1 37.9228C240.94 39.2377 242.02 40.3732 243.341 41.21C244.721 42.0467 246.221 42.6444 247.841 42.9432C249.582 43.3018 251.322 43.4811 253.122 43.4811C257.743 43.4811 261.103 42.5846 263.324 40.9111C264.404 40.0744 265.244 38.9986 265.844 37.8033C266.444 36.6079 266.684 35.2333 266.684 33.9184C266.684 32.6036 266.564 31.2887 266.204 30.0336C265.844 28.9578 265.244 27.9418 264.464 27.1648C263.504 26.2683 262.364 25.5511 261.104 25.1327C259.363 24.4753 257.563 24.0569 255.703 23.7581L251.802 23.1007C250.542 22.9811 249.342 22.5628 248.261 21.9651C247.961 21.726 247.721 21.3674 247.541 21.0088C247.361 20.6502 247.301 20.2319 247.361 19.8135C247.361 19.4549 247.481 19.0963 247.661 18.7975C247.841 18.4389 248.201 18.0803 248.561 17.8412C249.102 17.5424 249.702 17.3033 250.302 17.1838C251.202 17.0045 252.102 16.885 253.062 16.885C254.562 16.7654 256.063 17.124 257.323 17.901C258.283 18.678 258.943 19.8135 259.183 21.0088L266.564 20.0526C266.324 18.7975 265.964 17.5424 265.424 16.4068C264.884 15.2713 264.044 14.2552 263.084 13.4782C261.884 12.522 260.503 11.8646 259.063 11.4462C257.083 10.9083 254.982 10.6692 252.942 10.729C251.142 10.729 249.282 10.9083 247.541 11.3864M283.967 36.4884C283.067 36.1895 282.287 35.7712 281.567 35.1138C280.787 34.277 280.247 33.261 279.947 32.1852C279.587 30.6313 279.407 29.0176 279.467 27.4039V26.4476C279.407 24.9534 279.647 23.519 280.007 22.0847C280.367 21.0089 280.967 20.0526 281.747 19.2756C282.407 18.7377 283.127 18.3193 283.907 17.9607C284.747 17.6619 285.588 17.5424 286.488 17.5424C287.388 17.5424 288.228 17.7217 289.068 18.0205C289.908 18.3791 290.628 18.9768 291.169 19.694C291.829 20.5905 292.309 21.6065 292.549 22.6823C292.909 24.1765 293.089 25.6706 293.029 27.2246C293.029 28.7187 292.909 30.2129 292.489 31.6473C292.189 32.7231 291.709 33.7391 291.048 34.6356C290.508 35.3528 289.728 35.9505 288.888 36.3091C288.048 36.6677 287.208 36.847 286.308 36.847C285.528 36.7872 284.687 36.7274 283.967 36.4884ZM279.287 15.8092V11.745H271.305V54H279.587V39.3572C280.667 40.8514 282.167 41.9869 283.847 42.6444C285.288 43.1823 286.848 43.4811 288.408 43.4811C290.328 43.4811 292.249 43.1225 293.989 42.2857C295.609 41.5088 297.05 40.3732 298.19 38.9388C299.39 37.3849 300.29 35.6517 300.83 33.7989C301.43 31.6473 301.79 29.3762 301.73 27.1648C301.73 22.0847 300.65 18.0803 298.55 15.2115C296.449 12.2829 293.209 10.8485 288.948 10.8485C287.028 10.7888 285.168 11.2071 283.487 12.1036C281.807 12.9404 280.367 14.1955 279.287 15.8092ZM314.452 36.1895C314.092 35.8907 313.852 35.5321 313.612 35.1138C313.432 34.6954 313.372 34.2173 313.372 33.7989C313.372 33.2012 313.432 32.5438 313.672 31.9461C313.912 31.3485 314.332 30.8703 314.812 30.5117C315.533 30.0336 316.373 29.675 317.273 29.4957C318.653 29.1969 320.033 29.0176 321.474 28.9578L325.134 28.7785V30.3922C325.194 31.468 324.954 32.5438 324.414 33.5598C323.934 34.3966 323.334 35.1138 322.614 35.6517C321.113 36.6677 319.253 37.2056 317.453 37.1458C316.373 37.1458 315.353 36.847 314.452 36.1895ZM311.092 12.9404C309.892 13.7173 308.931 14.7334 308.211 15.9885C307.491 17.1838 307.011 18.5584 306.831 19.9331L314.392 20.6502C314.872 18.1998 316.733 16.9447 319.973 16.9447C321.294 16.9447 322.554 17.3033 323.694 18.0205C324.234 18.4986 324.654 19.0963 324.954 19.7537C325.254 20.4112 325.314 21.1284 325.254 21.9053V23.4593L321.294 23.6386C319.373 23.6983 317.393 23.9374 315.473 24.2362C313.672 24.5351 311.932 25.073 310.312 25.8499C308.811 26.5671 307.551 27.6429 306.591 28.9578C305.631 30.5117 305.091 32.3047 305.211 34.0977C305.151 35.5321 305.451 36.9665 306.051 38.2814C306.531 39.4169 307.311 40.433 308.271 41.21C309.232 41.9869 310.312 42.5248 311.512 42.8834C312.772 43.242 314.092 43.4213 315.413 43.4213C317.453 43.4811 319.493 43.0627 321.294 42.1065C322.854 41.21 324.234 40.0744 325.374 38.7595V42.6444H333.115V23.2202C333.115 21.487 332.935 19.7537 332.455 18.0803C332.035 16.6459 331.315 15.331 330.295 14.1955C329.215 13.0599 327.835 12.2232 326.334 11.745C324.414 11.1474 322.374 10.8485 320.333 10.9083C317.153 10.729 313.912 11.506 311.152 13.0599M339.237 42.5248H347.458V0.449142H339.177V42.5248H339.237ZM353.759 4.57303V1.2261H354.719V0.389372H351.779V1.2261H352.739V4.57303H353.759ZM356.159 4.57303V1.76401L357.36 4.57303H357.84L359.04 1.76401V4.57303H360V0.329602H358.8L357.6 3.13864L356.399 0.329602H355.079V4.57303H356.159Z" fill="white"/>
</svg>
