<svg width="24" height="24" viewBox="0 0 24 24" fill="none" xmlns="http://www.w3.org/2000/svg">
<path fill-rule="evenodd" clip-rule="evenodd" d="M16.9607 9.7897C16.5253 8.96549 16.1889 8.57261 15.7522 8.57261C15.2645 8.57261 15.0497 8.82847 14.7557 9.28567C14.5182 9.59255 14.2892 10.0127 13.9076 9.97078C13.5048 9.92881 13.2716 8.98506 12.9677 8.1951C12.5507 7.11852 12.3104 6 11.6179 6C11.2228 6 10.8772 6.35653 10.3415 7.15418L4.80718 15.5676C4.17113 16.6211 3.63897 17.3551 4.31248 18.0451C5.104 18.8001 6.96268 17.4789 8.23479 16.6819C9.50686 15.885 10.8073 15.109 12.6447 15.1509C15.1182 15.2069 16.3197 17.6676 17.8179 18.136C18.8356 18.4576 19.7685 18.0871 19.9663 17.0454C20.083 16.4729 19.8808 15.9171 19.6017 15.3243L16.9607 9.7897ZM16.791 14.7245C16.2893 15.095 15.5896 14.5008 15.1373 14.2491C14.6567 13.9835 13.844 13.3473 12.3882 13.3683C11.2009 13.3822 10.5578 13.8227 9.85106 14.2981C8.31747 15.3327 6.93229 16.5351 6.53653 15.9129C6.28211 15.5144 6.96763 14.7175 8.57895 12.2288C9.72383 10.4601 10.5302 9.04798 11.1019 9.04798C11.7338 9.04798 11.7691 9.66246 11.8652 10.2923C12.0468 11.2955 12.5415 11.8177 13.1839 11.9002C13.9041 11.9967 14.5267 11.3976 15.0214 11.4039C15.4836 11.4137 15.7875 12.0771 16.1691 12.7692C16.6525 13.629 17.1571 14.4518 16.791 14.7245Z" fill="#1E1F24"/>
</svg>
