<svg width="24" height="24" viewBox="0 0 24 24" fill="none" xmlns="http://www.w3.org/2000/svg">
<path fill-rule="evenodd" clip-rule="evenodd" d="M12 4C9.82734 4 9.55488 4.00919 8.70162 4.04814C7.8501 4.08699 7.26857 4.22222 6.75968 4.42002C6.2336 4.62446 5.78747 4.89801 5.34272 5.34272C4.89797 5.78747 4.62441 6.23365 4.41998 6.75968C4.22222 7.26857 4.08699 7.8501 4.04809 8.70162C4.00919 9.55488 4 9.82734 4 12C4 14.1727 4.00919 14.4451 4.04809 15.2984C4.08699 16.1499 4.22222 16.7314 4.41998 17.2403C4.62441 17.7664 4.89797 18.2125 5.34272 18.6573C5.78747 19.102 6.2336 19.3756 6.75968 19.58C7.26857 19.7778 7.8501 19.913 8.70162 19.9519C9.55488 19.9908 9.82734 20 12 20C14.1727 20 14.4451 19.9908 15.2984 19.9519C16.1499 19.913 16.7314 19.7778 17.2403 19.58C17.7664 19.3756 18.2125 19.102 18.6573 18.6573C19.102 18.2125 19.3756 17.7664 19.58 17.2403C19.7778 16.7314 19.913 16.1499 19.9519 15.2984C19.9908 14.4451 20 14.1727 20 12C20 9.82734 19.9908 9.55488 19.9519 8.70162C19.913 7.8501 19.7778 7.26857 19.58 6.75968C19.3756 6.23365 19.102 5.78747 18.6573 5.34272C18.2125 4.89801 17.7664 4.62446 17.2403 4.42002C16.7314 4.22222 16.1499 4.08699 15.2984 4.04814C14.4451 4.00919 14.1727 4 12 4ZM12 5.44146C14.1361 5.44146 14.3891 5.4496 15.2327 5.48809C16.0127 5.5237 16.4363 5.65403 16.7182 5.76352C17.0916 5.90866 17.3581 6.08206 17.638 6.36197C17.918 6.64192 18.0913 6.90843 18.2365 7.28183C18.346 7.56375 18.4763 7.98734 18.5119 8.76731C18.5504 9.61088 18.5586 9.86391 18.5586 12C18.5586 14.1361 18.5504 14.3891 18.5119 15.2327C18.4763 16.0127 18.346 16.4363 18.2365 16.7182C18.0913 17.0916 17.918 17.3581 17.638 17.638C17.3581 17.918 17.0916 18.0913 16.7182 18.2365C16.4363 18.346 16.0127 18.4763 15.2327 18.5119C14.3893 18.5504 14.1362 18.5586 12 18.5586C9.86377 18.5586 9.61079 18.5504 8.76731 18.5119C7.98734 18.4763 7.56375 18.346 7.28183 18.2365C6.90839 18.0913 6.64192 17.918 6.36197 17.638C6.08201 17.3581 5.90862 17.0916 5.76352 16.7182C5.65399 16.4363 5.52366 16.0127 5.48805 15.2327C5.44955 14.3891 5.44142 14.1361 5.44142 12C5.44142 9.86391 5.44955 9.61088 5.48805 8.76731C5.52366 7.98734 5.65399 7.56375 5.76352 7.28183C5.90862 6.90843 6.08201 6.64192 6.36197 6.36197C6.64192 6.08206 6.90839 5.90866 7.28183 5.76352C7.56375 5.65403 7.98734 5.5237 8.76731 5.48809C9.61088 5.4496 9.86391 5.44146 12 5.44146ZM12 7.89189C9.73115 7.89189 7.89189 9.73115 7.89189 12C7.89189 14.2688 9.73115 16.1081 12 16.1081C14.2688 16.1081 16.1081 14.2688 16.1081 12C16.1081 9.73115 14.2688 7.89189 12 7.89189ZM12 14.6667C10.5272 14.6667 9.33335 13.4728 9.33335 12C9.33335 10.5272 10.5272 9.33335 12 9.33335C13.4728 9.33335 14.6667 10.5272 14.6667 12C14.6667 13.4728 13.4728 14.6667 12 14.6667ZM17.2304 7.7296C17.2304 8.25979 16.8006 8.68955 16.2704 8.68955C15.7403 8.68955 15.3104 8.25979 15.3104 7.7296C15.3104 7.19941 15.7403 6.7696 16.2704 6.7696C16.8006 6.7696 17.2304 7.19941 17.2304 7.7296Z" fill="#1E1F24"/>
</svg>
