<svg width="24" height="24" viewBox="0 0 24 24" fill="none" xmlns="http://www.w3.org/2000/svg">
<path d="M18.6131 4H4.97874C4.32561 4 3.79749 4.51563 3.79749 5.15313V18.8438C3.79749 19.4813 4.32561 20 4.97874 20H18.6131C19.2662 20 19.7975 19.4813 19.7975 18.8469V5.15313C19.7975 4.51563 19.2662 4 18.6131 4ZM8.54436 17.6344H6.16936V9.99687H8.54436V17.6344ZM7.35686 8.95625C6.59436 8.95625 5.97874 8.34062 5.97874 7.58125C5.97874 6.82188 6.59436 6.20625 7.35686 6.20625C8.11624 6.20625 8.73186 6.82188 8.73186 7.58125C8.73186 8.3375 8.11624 8.95625 7.35686 8.95625ZM17.4319 17.6344H15.06V13.9219C15.06 13.0375 15.0444 11.8969 13.8256 11.8969C12.5912 11.8969 12.4037 12.8625 12.4037 13.8594V17.6344H10.035V9.99687H12.31V11.0406H12.3412C12.6569 10.4406 13.4319 9.80625 14.585 9.80625C16.9881 9.80625 17.4319 11.3875 17.4319 13.4438V17.6344V17.6344Z" fill="#1E1F24"/>
</svg>
