<svg width="24" height="24" viewBox="0 0 24 24" fill="none" xmlns="http://www.w3.org/2000/svg">
<path d="M12.0665 4C17.1385 4.0001 18.5012 7.86767 18.7979 9.05371L17.4532 9.39062C17.1521 8.18658 16.0239 5.38584 12.0665 5.38574C10.3448 5.38574 8.99437 5.87817 8.05279 6.84863C6.5849 8.36208 6.33963 10.751 6.39263 12.4883C6.44894 14.3301 7.10852 18.6143 12.0069 18.6143C14.6955 18.6142 16.7225 17.1516 16.7227 15.2119C16.7227 14.1054 16.3579 13.3867 15.4991 12.8926C15.2092 14.8513 14.0523 16.0672 12.2833 16.2051C11.2163 16.2871 10.239 15.9461 9.59967 15.2676C9.06988 14.7054 8.83567 13.9773 8.94049 13.2178C9.04412 12.4664 9.46627 11.8395 10.1612 11.4043C11.1457 10.7877 12.5745 10.6297 14.1065 10.9453C13.8282 9.44163 12.8645 9.14303 12.253 9.11133C10.8034 9.03717 10.2803 9.92024 10.2588 9.95801L9.03912 9.2998C9.07585 9.23068 9.97049 7.6039 12.3253 7.72656C13.8032 7.80337 15.3762 8.81365 15.5538 11.3828C17.2719 12.0976 18.1094 13.3551 18.1094 15.2119C18.1093 17.9416 15.4855 20 12.0069 20C7.76669 20 5.14965 17.2074 5.00689 12.5303C4.91913 9.65561 5.62863 7.35701 7.05767 5.88379C8.2702 4.63384 9.95545 4 12.0665 4ZM12.6055 12.1719C11.9254 12.1719 11.329 12.3081 10.8965 12.5791C10.556 12.7923 10.36 13.071 10.3135 13.4072C10.2543 13.8374 10.4411 14.14 10.6085 14.3174C10.9537 14.6837 11.5405 14.8729 12.1758 14.8232C13.6201 14.7108 14.072 13.5267 14.1651 12.3818C13.6218 12.2419 13.092 12.1719 12.6055 12.1719Z" fill="currentColor"/>
</svg>
